<?xml version="1.0" encoding="utf-8"?>
<!-- Generator: Adobe Illustrator 21.0.2, SVG Export Plug-In . SVG Version: 6.00 Build 0)  -->
<svg version="1.1" id="Layer_1" xmlns="http://www.w3.org/2000/svg" xmlns:xlink="http://www.w3.org/1999/xlink" x="0px" y="0px"
	 viewBox="0 0 269.4 63.2" style="enable-background:new 0 0 269.4 63.2;" xml:space="preserve">
<style type="text/css">
	.st0{fill:#FFC72C;}
	.st1{fill:#FFFFFF;}
	.st2{fill:#001489;}
	.st3{fill:#E4002B;}
</style>
<title>NAPA_AP_EN</title>
<g id="Final">
	<path class="st0" d="M134.6,28.6"/>
	<path class="st1" d="M64.1,54.2c0-1.2,1-2.3,2.3-2.3c1.2,0,2.3,1,2.3,2.3c0,1.2-1,2.3-2.2,2.3C65.1,56.5,64.1,55.5,64.1,54.2
		C64.1,54.3,64.1,54.3,64.1,54.2z M66.3,56.1c1,0,1.9-0.8,1.9-1.8c0-1-0.8-1.9-1.8-1.9c-1,0-1.9,0.8-1.9,1.8c0,0,0,0,0,0.1
		C64.5,55.2,65.3,56.1,66.3,56.1C66.3,56.1,66.3,56.1,66.3,56.1z M65.9,55.5h-0.4V53h1c0.6,0,0.9,0.2,0.9,0.7c0,0.4-0.3,0.7-0.6,0.7
		c0,0,0,0,0,0l0.7,1.1H67l-0.7-1.1h-0.4L65.9,55.5z M66.3,54.1c0.3,0,0.6,0,0.6-0.4s-0.3-0.4-0.6-0.4h-0.5v0.8H66.3z"/>
	<path class="st1" d="M67.8,25l-5.3-9.3l-1.8-3.1l-5.4-9.4c-1.1-2-3.2-3.2-5.5-3.2H18.7c-2.3,0-4.4,1.2-5.4,3.2l-5.4,9.4l-1.8,3.1
		L0.8,25c-1.1,2-1.1,4.4,0.1,6.4l5.2,9.3l1.7,3.1l5.3,9.4c1.1,2,3.2,3.2,5.5,3.2h31.2c2.3,0,4.4-1.2,5.5-3.2l5.4-9.4l1.7-3.1
		l5.2-9.3C68.9,29.5,68.9,27,67.8,25z"/>
	<path class="st0" d="M0.8,25c-1.1,2-1.1,4.4,0.1,6.4l5.2,9.3h3.2v-25H6.1L0.8,25z"/>
	<path class="st0" d="M62.5,15.8h-3.2v25h3.2l5.2-9.3c1.2-2,1.2-4.4,0.1-6.4L62.5,15.8z"/>
	<path class="st0" d="M60.8,12.6l-5.4-9.4c-1.1-2-3.2-3.2-5.5-3.2H18.7c-2.3,0-4.4,1.2-5.4,3.2l-5.4,9.4H60.8z"/>
	<path class="st0" d="M7.9,43.9l5.3,9.4c1.1,2,3.2,3.2,5.4,3.2h31.2c2.3,0,4.4-1.2,5.5-3.2l5.4-9.4H7.9z"/>
	<polygon class="st2" points="12.4,15.7 17.8,15.7 19.6,29.8 19.6,15.7 23.2,15.7 23.2,40.8 17.8,40.8 16,23.5 16,40.8 12.4,40.8 	
		"/>
	<path class="st2" d="M33.5,15.7h-6.6l-2.2,25h3.6l0.6-5.7h2.6l0.7,5.8h3.6L33.5,15.7z M29.2,31.4l1-12.7l1,12.7H29.2z"/>
	<path class="st2" d="M55.5,15.7h-6.6l-2.2,25h3.6l0.6-5.7h2.6l0.7,5.8h3.6L55.5,15.7z M51.2,31.4l1-12.7l1,12.7H51.2z"/>
	<path class="st2" d="M43.6,15.7h-6.2v25H41v-9.3h2.6c1.6,0,2.9-1.3,2.9-3v-9.8C46.6,17.1,45.3,15.8,43.6,15.7z M43.1,27.1
		c0,0.6-0.5,1.1-1.1,1.1H41v-9.4h1.1c0.6,0,1.1,0.5,1.1,1.1L43.1,27.1z"/>
	<path class="st0" d="M159.4,12.4c-4.6,0-8.1,2.5-10.6,6l0.9-5.6h-26.3l-3.1,19.7c-0.1,0.9-0.3,1.9-0.6,2.7
		c-0.3,0.9-1.2,1.5-2.2,1.5c-0.9,0.1-1.6-0.5-1.7-1.4c0,0,0-0.1,0-0.1c0-0.9,0-1.8,0.2-2.7l3.1-19.6h-8.5l-3.2,20.4
		c0,0.3-0.1,0.6-0.1,0.9l-1.2-21.3H95.8L83.3,44.1H92l1.3-4H99v4h8.8l-0.2-4.7c0.8,2.8,3.1,5.2,8.7,5.2c9.8,0,11.8-7.6,12.4-11.4
		l2-12.8h4.6l-3.7,23.6h8.4l3.7-23.6h3.9c-1.3,2.5-2.2,5.3-2.6,8.1c-1.2,7.6,0.8,16.2,9.4,16.2s13.3-8.5,14.5-16.2
		S168,12.4,159.4,12.4z M99.4,26.2l-0.2,7.3h-3.6l2.3-7.2c0.6-2,1.2-3.9,1.7-5.9h0.1C99.5,22.2,99.4,24.2,99.4,26.2L99.4,26.2z
		 M160.2,28.6c-0.3,2-1.4,8.3-4.6,8.3s-2.3-6.3-2-8.3s1.4-8.3,4.6-8.3S160.4,26.6,160.2,28.6L160.2,28.6z"/>
	<path class="st0" d="M263.5,20.1c2,0,3.7,1.8,4.4,3.4l1.5-9.5c-1.8-1-3.7-1.5-5.8-1.6c-3.9,0-7.5,2.2-9.4,5.6l0.8-5.1h-17.9
		l-0.7,4.3c-1.5-3.3-5.5-4.3-10.5-4.3h-8.2l-4.6,28.7l-1.6-28.7h-10.3L197,23.7c0-0.1,0-0.1,0-0.2c1.3-8.2-4-10.6-11.4-10.6H178
		l-4.9,31.2h8.4l1.6-10.2c5,0.1,9.1-1,11.6-4.3l-5.8,14.5h8.7l1.3-4h5.7v4h16.7l1.3-8.3c0.2-1.5,0.4-3.1,0.6-4.6l0.1-0.1l2.6,13h9.2
		l-4.2-13c3.3-1.3,5.7-4.3,6.1-7.8c0.2-0.9,0.2-1.8,0.2-2.8h3.4l-3.7,23.6h8.4l3.7-23.7h4c-0.3,0.7-0.5,1.4-0.6,2.2
		c-0.4,1.9-0.1,3.8,0.8,5.5c1,1.5,2.2,2.9,3.6,4c0.5,0.3,0.9,0.7,1.2,1.2c0.4,0.5,0.5,1.1,0.4,1.7c-0.3,1.3-1.5,2.1-2.8,2.1
		c-2.2,0-3.9-1.7-4.8-3.5l-1.6,9.8c1.9,0.8,4,1.3,6.1,1.3c5.9,0,10.7-4.6,11.6-10.4c0.4-1.8,0.2-3.8-0.7-5.4
		c-0.9-1.5-2.1-2.8-3.5-3.8c-0.5-0.4-0.9-0.8-1.3-1.3c-0.4-0.5-0.6-1.1-0.5-1.7C261.3,20.8,262.3,20.1,263.5,20.1z M188.6,23.3
		c-0.2,2.1-2.1,3.7-4.2,3.5c0,0-0.1,0-0.1,0l1.1-7.2h0.6C188.1,19.6,188.9,21.3,188.6,23.3L188.6,23.3z M204.9,26.2l-0.2,7.3h-3.6
		l2.3-7.2c0.6-2,1.2-3.9,1.7-5.9h0.1C205.1,22.2,205,24.2,204.9,26.2L204.9,26.2z M228.6,23.3c-0.3,2-1.8,4-4.1,4H224l1.2-7.7
		C227.5,19.4,229,20.6,228.6,23.3L228.6,23.3z"/>
	<path class="st3" d="M266.6,57.1c-0.4,0-1.5-0.2-1.5,0.4s1.9,0.9,1.8,2s-3.5,0.5-3.6,1.2c-0.1,0.4,0.3,0.6,0.3,1
		c0.2,0.5,0,1.1-0.5,1.4c-0.3,0.1-0.7,0.1-1,0.1c-2.5-0.2-5.1-0.6-7.6-1.1l-0.4-0.1c0,0-33.3-6.2-83-7c-35.6-0.7-70.9,5.2-70.9,5.2
		c-3.7,0.6-6.1,1.1-10,2c-0.4,0.1-1.3,0.5-1.5-0.1s0.7-0.8,1.1-1c0.6-0.2,0.8-0.3,1.4-0.5s1.2-0.3,1.2-0.7s-1.5,0.1-2.3,0.2
		c-2.2,0.5-2.1,0.5-4.7,0.9c-1,0.2-2.5,0.5-2.6-0.5c-0.1-0.6,1.3-0.9,1.8-1c5.4-1.4,14.1-2.8,20.1-3.7c7.6-1.1,17-1.9,21.1-2.3
		c8.1-0.7,4.8-0.2,13.1-0.8c4.7-0.3,12.6-0.1,12.6-0.5S141.4,51.9,139,52c-2.9,0.1-5.6,0.2-12.8,0.6c-3.7,0.2-16.6,1.5-21.3,2.1
		c-5.8,0.7-13.2,2-15.3,2.4c-3.4,0.7-5.7,1.3-9.3,2c-0.6,0.2-2.1,0.3-2.6,0.4s-1.2,0-1.3-0.6s0.5-1.2,1.1-1.4s0.7-0.2,1.1-0.3
		c0.6-0.2,1.8-0.3,1.8-0.9s-3-0.6-3-1.5c0-0.7,1-0.8,1.7-0.9c0.9-0.2,2.6-0.3,2.6-0.9s-1.9-0.5-2-1.2c0-0.5,0.8-0.7,0.8-0.7
		S91,49.3,93.7,49l19-1.9l15.6-1.2l6.8-0.2l20.1-0.1l13.2,0.2l18.3,0.7l13.4,0.9l14.3,1.1c4.8,0.5,3.1,0.3,16.2,1.8
		c11.9,1.3,37.6,4.9,37,6.5C267.6,57,267.4,57.1,266.6,57.1z"/>
</g>
</svg>
