<?xml version="1.0" encoding="UTF-8" standalone="no"?>
<svg
   xmlns:dc="http://purl.org/dc/elements/1.1/"
   xmlns:cc="http://creativecommons.org/ns#"
   xmlns:rdf="http://www.w3.org/1999/02/22-rdf-syntax-ns#"
   xmlns:svg="http://www.w3.org/2000/svg"
   xmlns="http://www.w3.org/2000/svg"
   xmlns:sodipodi="http://sodipodi.sourceforge.net/DTD/sodipodi-0.dtd"
   xmlns:inkscape="http://www.inkscape.org/namespaces/inkscape"
   class="icon"
   height="512"
   viewBox="0 0 1024 1024"
   version="1.1"
   id="svg3725"
   sodipodi:docname="tire-vector.svg"
   inkscape:version="0.92.4 (5da689c313, 2019-01-14)">
  <metadata
     id="metadata3731">
    <rdf:RDF>
      <cc:Work
         rdf:about="">
        <dc:format>image/svg+xml</dc:format>
        <dc:type
           rdf:resource="http://purl.org/dc/dcmitype/StillImage" />
        <dc:title></dc:title>
      </cc:Work>
    </rdf:RDF>
  </metadata>
  <defs
     id="defs3729" />
  <sodipodi:namedview
     pagecolor="#ffffff"
     bordercolor="#666666"
     borderopacity="1"
     objecttolerance="10"
     gridtolerance="10"
     guidetolerance="10"
     inkscape:pageopacity="0"
     inkscape:pageshadow="2"
     inkscape:window-width="1600"
     inkscape:window-height="838"
     id="namedview3727"
     showgrid="true"
     inkscape:zoom="0.92669658"
     inkscape:cx="201.92634"
     inkscape:cy="310.5576"
     inkscape:window-x="-8"
     inkscape:window-y="-8"
     inkscape:window-maximized="1"
     inkscape:current-layer="svg3725">
    <inkscape:grid
       type="xygrid"
       id="grid3733" />
  </sodipodi:namedview>
  <path
     d="M512 0C229.574194 0 0 229.574194 0 512s229.574194 512 512 512 512-229.574194 512-512S794.425806 0 512 0z m0 872.877419c-199.019355 0-360.877419-161.032258-360.877419-360.877419 0-199.019355 161.032258-360.877419 360.877419-360.877419 199.019355 0 360.877419 161.032258 360.877419 360.877419 0 199.019355-161.858065 360.877419-360.877419 360.877419zM840.670968 463.277419c-6.606452-47.070968-23.948387-90.83871-47.896774-128.825806-45.419355 57.806452-120.567742 78.451613-176.722581 46.245161-61.935484-35.509677-79.277419-122.219355-40.464516-194.890322-20.645161-4.129032-41.290323-5.780645-63.587097-5.780646-21.470968 0-42.941935 2.477419-63.587097 5.780646 38.812903 72.670968 21.470968 159.380645-40.464516 194.890322-56.980645 33.032258-131.303226 11.56129-176.722581-46.245161-23.948387 37.987097-41.290323 81.754839-47.896774 128.825806 81.754839-20.645161 161.858065 19.819355 180.851613 90.012904 18.167742 69.367742-31.380645 142.864516-111.483871 165.987096C286.554839 761.393548 330.322581 795.251613 379.870968 817.548387c-0.825806-84.232258 56.980645-152.774194 128.825806-154.425806 73.496774-1.651613 133.780645 66.064516 136.258065 151.12258v3.303226c50.374194-21.470968 94.141935-55.329032 127.174193-98.270968-80.103226-23.122581-129.651613-96.619355-111.483871-166.812903 18.167742-70.193548 98.270968-109.832258 180.025807-89.187097zM512 580.541935c-45.419355 0-82.580645-37.16129-82.580645-82.580645s37.16129-82.580645 82.580645-82.580645 82.580645 37.16129 82.580645 82.580645-37.16129 82.580645-82.580645 82.580645z"
     id="path3723"
     style="fill:#3597cf;fill-opacity:1" />
  <path
     style="stroke-width:1.0791018"
     d="M 491.58717,510.74856 C 430.80244,505.58883 373.81104,478.9415 330.81041,435.57459 293.60105,398.04828 269.45915,351.21711 259.96985,298.15602 257.13741,282.31798 256.06033,247.49368 257.86282,230.03165 266.84396,143.02499 320.51681,65.824445 398.78441,27.336603 416.68554,18.53378 430.49736,13.30045 447.18322,8.9981815 490.45861,-2.1599102 533.68429,-2.20019 576.55656,8.8776251 659.11985,30.21125 727.56409,94.461431 754.24513,175.67796 c 17.49255,53.24696 17.52247,107.52688 0.0885,160.48307 -9.25691,28.11811 -25.43189,57.60903 -44.55563,81.23575 -9.30158,11.4918 -30.18378,31.71819 -42.67423,41.33406 -35.33301,27.20139 -79.64846,45.36824 -124.05591,50.85598 -13.16277,1.62663 -39.08904,2.21191 -51.46068,1.16174 z m 45.32228,-75.68355 c 11.42572,-1.43067 28.02831,-5.67017 39.39195,-10.05882 C 667.03981,389.96299 713.97488,291.00891 683.55632,198.87865 654.71146,111.5148 563.93826,59.750077 473.80675,79.265934 c -32.82382,7.107226 -61.79506,22.423946 -85.84349,45.384356 -28.45103,27.16382 -45.82426,58.64345 -53.61782,97.15345 -2.08304,10.29285 -2.45802,15.52044 -2.45802,34.26731 0,18.78461 0.37303,23.96547 2.47291,34.34512 14.63928,72.36164 69.36135,127.6616 141.24137,142.73291 19.22926,4.03186 39.3801,4.66159 61.30775,1.91593 z"
     id="path3901"
     inkscape:connector-curvature="0"
     transform="matrix(2,0,0,2,-512,0)" />
  <path
     style="stroke-width:1.0791018;fill:#3597cf;fill-opacity:1"
     d="m 491.58717,510.74723 c -61.51679,-5.21424 -117.96433,-31.73672 -161.63386,-75.94542 -36.83313,-37.2879 -61.40434,-85.71675 -70.42457,-138.80399 -2.35372,-13.85251 -3.27592,-50.36896 -1.66592,-65.96617 8.99334,-87.12486 62.63257,-164.282305 140.92159,-202.7089 25.6942,-12.611483 49.46279,-20.0738478 77.69534,-24.3931591 17.7447,-2.71477184 53.0834,-2.71713624 71.22072,-0.00477 84.37567,12.6180811 155.72413,64.4668411 193.17534,140.3800891 30.00519,60.82023 34.6816,128.38941 13.36657,193.13291 -27.4802,83.46991 -97.99685,147.96068 -183.88077,168.16756 -24.38878,5.73822 -55.19719,8.14028 -78.77444,6.14185 z m 44.68436,-75.65592 c 19.06312,-2.29928 41.59087,-9.47079 59.43063,-18.91926 62.26037,-32.97492 99.56732,-97.43197 96.72419,-167.11516 -2.12237,-52.01757 -25.02043,-98.90194 -64.26412,-131.58241 -70.70042,-58.876315 -173.96237,-55.803255 -240.23509,7.14935 -27.63171,26.24743 -46.01256,59.6094 -53.57618,97.24289 -2.07184,10.30864 -2.42123,15.41007 -2.37959,34.74388 0.0415,19.26144 0.41171,24.361 2.4678,33.99171 8.88505,41.6175 30.04405,77.55283 60.93416,103.48739 39.33138,33.02163 88.47996,47.32395 140.8982,41.00161 z"
     id="path3903"
     inkscape:connector-curvature="0"
     transform="matrix(2,0,0,2,-512,0)" />
  <path
     style="fill:#00d3fe;stroke-width:1.0791018;fill-opacity:0"
     d="M 490.4012,510.18088 C 439.65227,505.65415 388.42953,484.54861 349.76329,452.23318 299.72675,410.41499 266.89062,351.06887 259.09976,288.3732 257.27489,273.68781 257.56797,233.38521 259.59778,219.88976 271.26643,142.30924 316.70462,74.928713 383.51483,36.132504 411.47154,19.898242 438.79501,10.047342 472.50529,4.0488748 489.60508,1.0061072 530.84336,0.74633605 548.85759,3.5679108 640.3719,17.901836 715.87101,78.281826 749.32382,163.88966 c 12.07583,30.9028 17.29699,58.58996 17.29699,91.72365 0,86.27384 -42.42275,165.13694 -114.64159,213.11655 -36.89618,24.51251 -78.07425,38.22906 -124.70367,41.5392 -16.91314,1.20063 -22.57738,1.18709 -36.87435,-0.0882 z m 43.03686,-74.47403 c 57.48005,-6.18945 112.25597,-44.00672 138.75943,-95.79942 13.24453,-25.88228 19.17142,-47.89675 20.37006,-75.6613 1.3835,-32.04691 -4.85662,-61.43227 -19.13422,-90.10501 -24.33328,-48.86686 -69.37316,-83.179022 -125.65485,-95.726033 -9.4729,-2.111818 -13.88858,-2.406747 -36.14991,-2.414503 -24.08864,-0.0084 -26.00667,0.144134 -38.29078,3.04501 -24.32246,5.74371 -43.85657,14.269335 -64.22389,28.030396 -13.98606,9.4496 -34.24229,29.40806 -44.51886,43.86444 -13.57836,19.10112 -25.37687,46.11852 -30.63087,70.14163 -1.66143,7.59662 -1.99734,13.71418 -1.95534,35.61036 0.0562,29.30122 0.88385,34.72763 8.80527,57.73195 21.3201,61.91487 73.52462,107.32207 137.00212,119.16366 6.42992,1.19949 13.63315,2.35429 16.00717,2.56623 9.92679,0.88625 29.25675,0.66792 39.61467,-0.44741 z"
     id="path4710"
     inkscape:connector-curvature="0"
     transform="matrix(2,0,0,2,-512,0)" />
  <path
     style="fill:#00d3fe;fill-opacity:0;stroke-width:1.0791018"
     d="M 490.4012,510.18088 C 439.65227,505.65415 388.42953,484.54861 349.76329,452.23318 299.72675,410.41499 266.89062,351.06887 259.09976,288.3732 257.27489,273.68781 257.56797,233.38521 259.59778,219.88976 271.26643,142.30924 316.70462,74.928713 383.51483,36.132504 411.47154,19.898242 438.79501,10.047342 472.50529,4.0488748 489.60508,1.0061072 530.84336,0.74633605 548.85759,3.5679108 640.3719,17.901836 715.87101,78.281826 749.32382,163.88966 c 12.07583,30.9028 17.29699,58.58996 17.29699,91.72365 0,86.27384 -42.42275,165.13694 -114.64159,213.11655 -36.89618,24.51251 -78.07425,38.22906 -124.70367,41.5392 -16.91314,1.20063 -22.57738,1.18709 -36.87435,-0.0882 z m 43.03686,-74.47403 c 57.48005,-6.18945 112.25597,-44.00672 138.75943,-95.79942 13.24453,-25.88228 19.17142,-47.89675 20.37006,-75.6613 1.3835,-32.04691 -4.85662,-61.43227 -19.13422,-90.10501 -24.33328,-48.86686 -69.37316,-83.179022 -125.65485,-95.726033 -9.4729,-2.111818 -13.88858,-2.406747 -36.14991,-2.414503 -24.08864,-0.0084 -26.00667,0.144134 -38.29078,3.04501 -24.32246,5.74371 -43.85657,14.269335 -64.22389,28.030396 -13.98606,9.4496 -34.24229,29.40806 -44.51886,43.86444 -13.57836,19.10112 -25.37687,46.11852 -30.63087,70.14163 -1.66143,7.59662 -1.99734,13.71418 -1.95534,35.61036 0.0562,29.30122 0.88385,34.72763 8.80527,57.73195 21.3201,61.91487 73.52462,107.32207 137.00212,119.16366 6.42992,1.19949 13.63315,2.35429 16.00717,2.56623 9.92679,0.88625 29.25675,0.66792 39.61467,-0.44741 z"
     id="path4712"
     inkscape:connector-curvature="0"
     transform="matrix(2,0,0,2,-512,0)" />
  <path
     style="fill:#1cd3fe;fill-opacity:0;stroke-width:1.0791018"
     d="M 490.4012,510.18088 C 439.65227,505.65415 388.42953,484.54861 349.76329,452.23318 299.72675,410.41499 266.89062,351.06887 259.09976,288.3732 257.27489,273.68781 257.56797,233.38521 259.59778,219.88976 271.26643,142.30924 316.70462,74.928713 383.51483,36.132504 411.47154,19.898242 438.79501,10.047342 472.50529,4.0488748 489.60508,1.0061072 530.84336,0.74633605 548.85759,3.5679108 640.3719,17.901836 715.87101,78.281826 749.32382,163.88966 c 12.07583,30.9028 17.29699,58.58996 17.29699,91.72365 0,86.27384 -42.42275,165.13694 -114.64159,213.11655 -36.89618,24.51251 -78.07425,38.22906 -124.70367,41.5392 -16.91314,1.20063 -22.57738,1.18709 -36.87435,-0.0882 z m 43.03686,-74.47403 c 57.48005,-6.18945 112.25597,-44.00672 138.75943,-95.79942 13.24453,-25.88228 19.17142,-47.89675 20.37006,-75.6613 1.3835,-32.04691 -4.85662,-61.43227 -19.13422,-90.10501 -24.33328,-48.86686 -69.37316,-83.179022 -125.65485,-95.726033 -9.4729,-2.111818 -13.88858,-2.406747 -36.14991,-2.414503 -24.08864,-0.0084 -26.00667,0.144134 -38.29078,3.04501 -24.32246,5.74371 -43.85657,14.269335 -64.22389,28.030396 -13.98606,9.4496 -34.24229,29.40806 -44.51886,43.86444 -13.57836,19.10112 -25.37687,46.11852 -30.63087,70.14163 -1.66143,7.59662 -1.99734,13.71418 -1.95534,35.61036 0.0562,29.30122 0.88385,34.72763 8.80527,57.73195 21.3201,61.91487 73.52462,107.32207 137.00212,119.16366 6.42992,1.19949 13.63315,2.35429 16.00717,2.56623 9.92679,0.88625 29.25675,0.66792 39.61467,-0.44741 z"
     id="path4714"
     inkscape:connector-curvature="0"
     transform="matrix(2,0,0,2,-512,0)" />
  <path
     style="fill:#1cd3fe;fill-opacity:0;stroke-width:1.0791018"
     d="M 490.4012,510.18088 C 439.65227,505.65415 388.42953,484.54861 349.76329,452.23318 299.72675,410.41499 266.89062,351.06887 259.09976,288.3732 257.27489,273.68781 257.56797,233.38521 259.59778,219.88976 271.26643,142.30924 316.70462,74.928713 383.51483,36.132504 411.47154,19.898242 438.79501,10.047342 472.50529,4.0488748 489.60508,1.0061072 530.84336,0.74633605 548.85759,3.5679108 640.3719,17.901836 715.87101,78.281826 749.32382,163.88966 c 12.07583,30.9028 17.29699,58.58996 17.29699,91.72365 0,86.27384 -42.42275,165.13694 -114.64159,213.11655 -36.89618,24.51251 -78.07425,38.22906 -124.70367,41.5392 -16.91314,1.20063 -22.57738,1.18709 -36.87435,-0.0882 z m 43.03686,-74.47403 c 57.48005,-6.18945 112.25597,-44.00672 138.75943,-95.79942 13.24453,-25.88228 19.17142,-47.89675 20.37006,-75.6613 1.3835,-32.04691 -4.85662,-61.43227 -19.13422,-90.10501 -24.33328,-48.86686 -69.37316,-83.179022 -125.65485,-95.726033 -9.4729,-2.111818 -13.88858,-2.406747 -36.14991,-2.414503 -24.08864,-0.0084 -26.00667,0.144134 -38.29078,3.04501 -24.32246,5.74371 -43.85657,14.269335 -64.22389,28.030396 -13.98606,9.4496 -34.24229,29.40806 -44.51886,43.86444 -13.57836,19.10112 -25.37687,46.11852 -30.63087,70.14163 -1.66143,7.59662 -1.99734,13.71418 -1.95534,35.61036 0.0562,29.30122 0.88385,34.72763 8.80527,57.73195 21.3201,61.91487 73.52462,107.32207 137.00212,119.16366 6.42992,1.19949 13.63315,2.35429 16.00717,2.56623 9.92679,0.88625 29.25675,0.66792 39.61467,-0.44741 z"
     id="path4716"
     inkscape:connector-curvature="0"
     transform="matrix(2,0,0,2,-512,0)" />
  <path
     style="fill:#1cd3fe;fill-opacity:0;stroke-width:1.0791018"
     d="M 490.4012,510.18088 C 439.65227,505.65415 388.42953,484.54861 349.76329,452.23318 299.72675,410.41499 266.89062,351.06887 259.09976,288.3732 257.27489,273.68781 257.56797,233.38521 259.59778,219.88976 271.26643,142.30924 316.70462,74.928713 383.51483,36.132504 411.47154,19.898242 438.79501,10.047342 472.50529,4.0488748 489.60508,1.0061072 530.84336,0.74633605 548.85759,3.5679108 640.3719,17.901836 715.87101,78.281826 749.32382,163.88966 c 12.07583,30.9028 17.29699,58.58996 17.29699,91.72365 0,86.27384 -42.42275,165.13694 -114.64159,213.11655 -36.89618,24.51251 -78.07425,38.22906 -124.70367,41.5392 -16.91314,1.20063 -22.57738,1.18709 -36.87435,-0.0882 z m 43.03686,-74.47403 c 57.48005,-6.18945 112.25597,-44.00672 138.75943,-95.79942 13.24453,-25.88228 19.17142,-47.89675 20.37006,-75.6613 1.3835,-32.04691 -4.85662,-61.43227 -19.13422,-90.10501 -24.33328,-48.86686 -69.37316,-83.179022 -125.65485,-95.726033 -9.4729,-2.111818 -13.88858,-2.406747 -36.14991,-2.414503 -24.08864,-0.0084 -26.00667,0.144134 -38.29078,3.04501 -24.32246,5.74371 -43.85657,14.269335 -64.22389,28.030396 -13.98606,9.4496 -34.24229,29.40806 -44.51886,43.86444 -13.57836,19.10112 -25.37687,46.11852 -30.63087,70.14163 -1.66143,7.59662 -1.99734,13.71418 -1.95534,35.61036 0.0562,29.30122 0.88385,34.72763 8.80527,57.73195 21.3201,61.91487 73.52462,107.32207 137.00212,119.16366 6.42992,1.19949 13.63315,2.35429 16.00717,2.56623 9.92679,0.88625 29.25675,0.66792 39.61467,-0.44741 z"
     id="path4718"
     inkscape:connector-curvature="0"
     transform="matrix(2,0,0,2,-512,0)" />
  <path
     style="fill:#1cd3fe;fill-opacity:0;stroke-width:1.0791018"
     d="M 490.4012,510.18088 C 439.65227,505.65415 388.42953,484.54861 349.76329,452.23318 299.72675,410.41499 266.89062,351.06887 259.09976,288.3732 257.27489,273.68781 257.56797,233.38521 259.59778,219.88976 271.26643,142.30924 316.70462,74.928713 383.51483,36.132504 411.47154,19.898242 438.79501,10.047342 472.50529,4.0488748 489.60508,1.0061072 530.84336,0.74633605 548.85759,3.5679108 640.3719,17.901836 715.87101,78.281826 749.32382,163.88966 c 12.07583,30.9028 17.29699,58.58996 17.29699,91.72365 0,86.27384 -42.42275,165.13694 -114.64159,213.11655 -36.89618,24.51251 -78.07425,38.22906 -124.70367,41.5392 -16.91314,1.20063 -22.57738,1.18709 -36.87435,-0.0882 z m 43.03686,-74.47403 c 57.48005,-6.18945 112.25597,-44.00672 138.75943,-95.79942 13.24453,-25.88228 19.17142,-47.89675 20.37006,-75.6613 1.3835,-32.04691 -4.85662,-61.43227 -19.13422,-90.10501 -24.33328,-48.86686 -69.37316,-83.179022 -125.65485,-95.726033 -9.4729,-2.111818 -13.88858,-2.406747 -36.14991,-2.414503 -24.08864,-0.0084 -26.00667,0.144134 -38.29078,3.04501 -24.32246,5.74371 -43.85657,14.269335 -64.22389,28.030396 -13.98606,9.4496 -34.24229,29.40806 -44.51886,43.86444 -13.57836,19.10112 -25.37687,46.11852 -30.63087,70.14163 -1.66143,7.59662 -1.99734,13.71418 -1.95534,35.61036 0.0562,29.30122 0.88385,34.72763 8.80527,57.73195 21.3201,61.91487 73.52462,107.32207 137.00212,119.16366 6.42992,1.19949 13.63315,2.35429 16.00717,2.56623 9.92679,0.88625 29.25675,0.66792 39.61467,-0.44741 z"
     id="path4720"
     inkscape:connector-curvature="0"
     transform="matrix(2,0,0,2,-512,0)" />
  <path
     style="fill:#1cd3fe;fill-opacity:0;stroke-width:1.0791018"
     d="M 490.4012,510.18088 C 439.65227,505.65415 388.42953,484.54861 349.76329,452.23318 299.72675,410.41499 266.89062,351.06887 259.09976,288.3732 257.27489,273.68781 257.56797,233.38521 259.59778,219.88976 271.26643,142.30924 316.70462,74.928713 383.51483,36.132504 411.47154,19.898242 438.79501,10.047342 472.50529,4.0488748 489.60508,1.0061072 530.84336,0.74633605 548.85759,3.5679108 640.3719,17.901836 715.87101,78.281826 749.32382,163.88966 c 12.07583,30.9028 17.29699,58.58996 17.29699,91.72365 0,86.27384 -42.42275,165.13694 -114.64159,213.11655 -36.89618,24.51251 -78.07425,38.22906 -124.70367,41.5392 -16.91314,1.20063 -22.57738,1.18709 -36.87435,-0.0882 z m 43.03686,-74.47403 c 57.48005,-6.18945 112.25597,-44.00672 138.75943,-95.79942 13.24453,-25.88228 19.17142,-47.89675 20.37006,-75.6613 1.3835,-32.04691 -4.85662,-61.43227 -19.13422,-90.10501 -24.33328,-48.86686 -69.37316,-83.179022 -125.65485,-95.726033 -9.4729,-2.111818 -13.88858,-2.406747 -36.14991,-2.414503 -24.08864,-0.0084 -26.00667,0.144134 -38.29078,3.04501 -24.32246,5.74371 -43.85657,14.269335 -64.22389,28.030396 -13.98606,9.4496 -34.24229,29.40806 -44.51886,43.86444 -13.57836,19.10112 -25.37687,46.11852 -30.63087,70.14163 -1.66143,7.59662 -1.99734,13.71418 -1.95534,35.61036 0.0562,29.30122 0.88385,34.72763 8.80527,57.73195 21.3201,61.91487 73.52462,107.32207 137.00212,119.16366 6.42992,1.19949 13.63315,2.35429 16.00717,2.56623 9.92679,0.88625 29.25675,0.66792 39.61467,-0.44741 z"
     id="path4722"
     inkscape:connector-curvature="0"
     transform="matrix(2,0,0,2,-512,0)" />
  <path
     style="fill:#1cd3fe;fill-opacity:0;stroke-width:1.0791018"
     d="M 490.4012,510.18088 C 439.65227,505.65415 388.42953,484.54861 349.76329,452.23318 299.72675,410.41499 266.89062,351.06887 259.09976,288.3732 257.27489,273.68781 257.56797,233.38521 259.59778,219.88976 271.26643,142.30924 316.70462,74.928713 383.51483,36.132504 411.47154,19.898242 438.79501,10.047342 472.50529,4.0488748 489.60508,1.0061072 530.84336,0.74633605 548.85759,3.5679108 640.3719,17.901836 715.87101,78.281826 749.32382,163.88966 c 12.07583,30.9028 17.29699,58.58996 17.29699,91.72365 0,86.27384 -42.42275,165.13694 -114.64159,213.11655 -36.89618,24.51251 -78.07425,38.22906 -124.70367,41.5392 -16.91314,1.20063 -22.57738,1.18709 -36.87435,-0.0882 z m 43.03686,-74.47403 c 57.48005,-6.18945 112.25597,-44.00672 138.75943,-95.79942 13.24453,-25.88228 19.17142,-47.89675 20.37006,-75.6613 1.3835,-32.04691 -4.85662,-61.43227 -19.13422,-90.10501 -24.33328,-48.86686 -69.37316,-83.179022 -125.65485,-95.726033 -9.4729,-2.111818 -13.88858,-2.406747 -36.14991,-2.414503 -24.08864,-0.0084 -26.00667,0.144134 -38.29078,3.04501 -24.32246,5.74371 -43.85657,14.269335 -64.22389,28.030396 -13.98606,9.4496 -34.24229,29.40806 -44.51886,43.86444 -13.57836,19.10112 -25.37687,46.11852 -30.63087,70.14163 -1.66143,7.59662 -1.99734,13.71418 -1.95534,35.61036 0.0562,29.30122 0.88385,34.72763 8.80527,57.73195 21.3201,61.91487 73.52462,107.32207 137.00212,119.16366 6.42992,1.19949 13.63315,2.35429 16.00717,2.56623 9.92679,0.88625 29.25675,0.66792 39.61467,-0.44741 z"
     id="path4724"
     inkscape:connector-curvature="0"
     transform="matrix(2,0,0,2,-512,0)" />
  <path
     style="fill:#1cd3fe;fill-opacity:0;stroke-width:1.0791018"
     d="M 490.4012,510.18088 C 439.65227,505.65415 388.42953,484.54861 349.76329,452.23318 299.72675,410.41499 266.89062,351.06887 259.09976,288.3732 257.27489,273.68781 257.56797,233.38521 259.59778,219.88976 271.26643,142.30924 316.70462,74.928713 383.51483,36.132504 411.47154,19.898242 438.79501,10.047342 472.50529,4.0488748 489.60508,1.0061072 530.84336,0.74633605 548.85759,3.5679108 640.3719,17.901836 715.87101,78.281826 749.32382,163.88966 c 12.07583,30.9028 17.29699,58.58996 17.29699,91.72365 0,86.27384 -42.42275,165.13694 -114.64159,213.11655 -36.89618,24.51251 -78.07425,38.22906 -124.70367,41.5392 -16.91314,1.20063 -22.57738,1.18709 -36.87435,-0.0882 z m 43.03686,-74.47403 c 57.48005,-6.18945 112.25597,-44.00672 138.75943,-95.79942 13.24453,-25.88228 19.17142,-47.89675 20.37006,-75.6613 1.3835,-32.04691 -4.85662,-61.43227 -19.13422,-90.10501 -24.33328,-48.86686 -69.37316,-83.179022 -125.65485,-95.726033 -9.4729,-2.111818 -13.88858,-2.406747 -36.14991,-2.414503 -24.08864,-0.0084 -26.00667,0.144134 -38.29078,3.04501 -24.32246,5.74371 -43.85657,14.269335 -64.22389,28.030396 -13.98606,9.4496 -34.24229,29.40806 -44.51886,43.86444 -13.57836,19.10112 -25.37687,46.11852 -30.63087,70.14163 -1.66143,7.59662 -1.99734,13.71418 -1.95534,35.61036 0.0562,29.30122 0.88385,34.72763 8.80527,57.73195 21.3201,61.91487 73.52462,107.32207 137.00212,119.16366 6.42992,1.19949 13.63315,2.35429 16.00717,2.56623 9.92679,0.88625 29.25675,0.66792 39.61467,-0.44741 z"
     id="path4726"
     inkscape:connector-curvature="0"
     transform="matrix(2,0,0,2,-512,0)" />
  <path
     style="fill:#04d3fe;fill-opacity:0;stroke-width:1.0791018"
     d="M 490.4012,510.18088 C 439.65227,505.65415 388.42953,484.54861 349.76329,452.23318 299.72675,410.41499 266.89062,351.06887 259.09976,288.3732 257.27489,273.68781 257.56797,233.38521 259.59778,219.88976 271.26643,142.30924 316.70462,74.928713 383.51483,36.132504 411.47154,19.898242 438.79501,10.047342 472.50529,4.0488748 489.60508,1.0061072 530.84336,0.74633605 548.85759,3.5679108 640.3719,17.901836 715.87101,78.281826 749.32382,163.88966 c 12.07583,30.9028 17.29699,58.58996 17.29699,91.72365 0,86.27384 -42.42275,165.13694 -114.64159,213.11655 -36.89618,24.51251 -78.07425,38.22906 -124.70367,41.5392 -16.91314,1.20063 -22.57738,1.18709 -36.87435,-0.0882 z m 43.03686,-74.47403 c 57.48005,-6.18945 112.25597,-44.00672 138.75943,-95.79942 13.24453,-25.88228 19.17142,-47.89675 20.37006,-75.6613 1.3835,-32.04691 -4.85662,-61.43227 -19.13422,-90.10501 -24.33328,-48.86686 -69.37316,-83.179022 -125.65485,-95.726033 -9.4729,-2.111818 -13.88858,-2.406747 -36.14991,-2.414503 -24.08864,-0.0084 -26.00667,0.144134 -38.29078,3.04501 -24.32246,5.74371 -43.85657,14.269335 -64.22389,28.030396 -13.98606,9.4496 -34.24229,29.40806 -44.51886,43.86444 -13.57836,19.10112 -25.37687,46.11852 -30.63087,70.14163 -1.66143,7.59662 -1.99734,13.71418 -1.95534,35.61036 0.0562,29.30122 0.88385,34.72763 8.80527,57.73195 21.3201,61.91487 73.52462,107.32207 137.00212,119.16366 6.42992,1.19949 13.63315,2.35429 16.00717,2.56623 9.92679,0.88625 29.25675,0.66792 39.61467,-0.44741 z"
     id="path4728"
     inkscape:connector-curvature="0"
     transform="matrix(2,0,0,2,-512,0)" />
  <path
     style="fill:#04d3fe;fill-opacity:0;stroke-width:1.0791018"
     d="M 490.4012,510.18088 C 439.65227,505.65415 388.42953,484.54861 349.76329,452.23318 299.72675,410.41499 266.89062,351.06887 259.09976,288.3732 257.27489,273.68781 257.56797,233.38521 259.59778,219.88976 271.26643,142.30924 316.70462,74.928713 383.51483,36.132504 411.47154,19.898242 438.79501,10.047342 472.50529,4.0488748 489.60508,1.0061072 530.84336,0.74633605 548.85759,3.5679108 640.3719,17.901836 715.87101,78.281826 749.32382,163.88966 c 12.07583,30.9028 17.29699,58.58996 17.29699,91.72365 0,86.27384 -42.42275,165.13694 -114.64159,213.11655 -36.89618,24.51251 -78.07425,38.22906 -124.70367,41.5392 -16.91314,1.20063 -22.57738,1.18709 -36.87435,-0.0882 z m 43.03686,-74.47403 c 57.48005,-6.18945 112.25597,-44.00672 138.75943,-95.79942 13.24453,-25.88228 19.17142,-47.89675 20.37006,-75.6613 1.3835,-32.04691 -4.85662,-61.43227 -19.13422,-90.10501 -24.33328,-48.86686 -69.37316,-83.179022 -125.65485,-95.726033 -9.4729,-2.111818 -13.88858,-2.406747 -36.14991,-2.414503 -24.08864,-0.0084 -26.00667,0.144134 -38.29078,3.04501 -24.32246,5.74371 -43.85657,14.269335 -64.22389,28.030396 -13.98606,9.4496 -34.24229,29.40806 -44.51886,43.86444 -13.57836,19.10112 -25.37687,46.11852 -30.63087,70.14163 -1.66143,7.59662 -1.99734,13.71418 -1.95534,35.61036 0.0562,29.30122 0.88385,34.72763 8.80527,57.73195 21.3201,61.91487 73.52462,107.32207 137.00212,119.16366 6.42992,1.19949 13.63315,2.35429 16.00717,2.56623 9.92679,0.88625 29.25675,0.66792 39.61467,-0.44741 z"
     id="path4730"
     inkscape:connector-curvature="0"
     transform="matrix(2,0,0,2,-512,0)" />
  <path
     style="fill:#04d3fe;fill-opacity:0;stroke-width:1.0791018"
     d="M 490.4012,510.18088 C 439.65227,505.65415 388.42953,484.54861 349.76329,452.23318 299.72675,410.41499 266.89062,351.06887 259.09976,288.3732 257.27489,273.68781 257.56797,233.38521 259.59778,219.88976 271.26643,142.30924 316.70462,74.928713 383.51483,36.132504 411.47154,19.898242 438.79501,10.047342 472.50529,4.0488748 489.60508,1.0061072 530.84336,0.74633605 548.85759,3.5679108 640.3719,17.901836 715.87101,78.281826 749.32382,163.88966 c 12.07583,30.9028 17.29699,58.58996 17.29699,91.72365 0,86.27384 -42.42275,165.13694 -114.64159,213.11655 -36.89618,24.51251 -78.07425,38.22906 -124.70367,41.5392 -16.91314,1.20063 -22.57738,1.18709 -36.87435,-0.0882 z m 43.03686,-74.47403 c 57.48005,-6.18945 112.25597,-44.00672 138.75943,-95.79942 13.24453,-25.88228 19.17142,-47.89675 20.37006,-75.6613 1.3835,-32.04691 -4.85662,-61.43227 -19.13422,-90.10501 -24.33328,-48.86686 -69.37316,-83.179022 -125.65485,-95.726033 -9.4729,-2.111818 -13.88858,-2.406747 -36.14991,-2.414503 -24.08864,-0.0084 -26.00667,0.144134 -38.29078,3.04501 -24.32246,5.74371 -43.85657,14.269335 -64.22389,28.030396 -13.98606,9.4496 -34.24229,29.40806 -44.51886,43.86444 -13.57836,19.10112 -25.37687,46.11852 -30.63087,70.14163 -1.66143,7.59662 -1.99734,13.71418 -1.95534,35.61036 0.0562,29.30122 0.88385,34.72763 8.80527,57.73195 21.3201,61.91487 73.52462,107.32207 137.00212,119.16366 6.42992,1.19949 13.63315,2.35429 16.00717,2.56623 9.92679,0.88625 29.25675,0.66792 39.61467,-0.44741 z"
     id="path4732"
     inkscape:connector-curvature="0"
     transform="matrix(2,0,0,2,-512,0)" />
  <path
     style="fill:#04d3fe;fill-opacity:0;stroke-width:1.0791018"
     d="m 434.98893,402.60359 c -15.90537,-8.92173 -26.00413,-16.55301 -39.34105,-29.72865 l -12.92646,-12.77015 5.37275,-1.89956 c 36.17333,-12.78922 58.7773,-48.70232 50.6757,-80.51338 -5.52712,-21.70234 -22.31592,-38.28398 -46.38205,-45.80978 -9.19101,-2.87414 -27.42019,-4.01595 -36.6024,-2.29263 -3.51315,0.65935 -6.61422,0.97214 -6.89127,0.69509 -0.84744,-0.84744 1.96627,-13.49165 5.40967,-24.3099 3.65431,-11.48089 7.7243,-20.91895 13.38921,-31.04876 l 3.8208,-6.83223 4.23733,4.81386 c 5.76746,6.55218 17.59797,15.14951 26.23695,19.06661 42.06998,19.07544 84.92957,-6.34588 88.68389,-52.60111 1.06861,-13.16569 -2.04556,-29.28575 -8.62744,-44.658783 -0.89077,-2.080547 3.79622,-2.840035 23.64895,-3.832119 10.92602,-0.545996 35.71321,0.990438 37.0173,2.294517 0.19925,0.199254 -0.62733,2.302063 -1.83684,4.672908 -6.53383,12.807357 -9.33361,35.914697 -6.1712,50.932707 0.93732,4.4513 3.69105,12.12307 6.11938,17.04838 18.90034,38.33483 68.3682,43.6014 102.86106,10.95104 l 9.12992,-8.64224 7.03971,14.33143 c 3.87184,7.88228 8.26081,18.08635 9.75326,22.6757 2.81166,8.64587 6.42062,24.55336 5.72769,25.2463 -0.21748,0.21747 -3.26981,-0.14373 -6.78296,-0.80268 -3.53825,-0.66367 -11.68246,-0.97011 -18.25767,-0.68701 -20.54728,0.88471 -36.87282,7.99677 -49.84936,21.71634 -15.29016,16.16569 -20.11483,37.43111 -13.37426,58.94892 6.75908,21.57685 26.08875,40.69604 49.02684,48.49294 l 5.25229,1.7853 -5.95173,6.96416 c -11.58134,13.55141 -29.08298,27.26644 -45.83595,35.91901 -5.36375,2.77027 -10.03933,5.03686 -10.39019,5.03686 -0.35085,0 -0.64131,-2.30658 -0.64548,-5.12574 -0.0111,-7.52097 -3.85846,-22.30761 -8.09734,-31.12062 -14.12921,-29.37583 -42.50389,-45.06145 -70.88619,-39.18613 -17.55036,3.63305 -36.04835,18.72635 -44.83745,36.58482 -5.03416,10.22885 -8.88195,24.58539 -8.89342,33.18238 -0.004,3.11591 -0.37176,5.66417 -0.81689,5.66283 -0.44513,-0.001 -4.94742,-2.32363 -10.0051,-5.16063 z m 89.9752,-114.2144 c 10.5756,-3.23184 20.22463,-11.94638 25.32788,-22.87495 2.45918,-5.26633 2.86128,-7.55989 2.87085,-16.37554 0.01,-9.29009 -0.3101,-10.92956 -3.41437,-17.48221 -6.02352,-12.71483 -16.46365,-20.83524 -30.28247,-23.55393 -9.09286,-1.78891 -17.09296,-0.59284 -26.06845,3.89741 -8.74538,4.37514 -15.32159,11.0599 -19.36446,19.6841 -2.5373,5.41253 -2.87086,7.44054 -2.87086,17.45463 0,10.34294 0.27565,11.89288 3.16239,17.78165 9.32459,19.0216 29.98507,27.7807 50.63949,21.46884 z"
     id="path4734"
     inkscape:connector-curvature="0"
     transform="matrix(2,0,0,2,-512,0)" />
  <path
     style="fill:#04d3fe;fill-opacity:0;stroke-width:1.0791018"
     d="m 434.98893,402.60359 c -15.90537,-8.92173 -26.00413,-16.55301 -39.34105,-29.72865 l -12.92646,-12.77015 5.37275,-1.89956 c 36.17333,-12.78922 58.7773,-48.70232 50.6757,-80.51338 -5.52712,-21.70234 -22.31592,-38.28398 -46.38205,-45.80978 -9.19101,-2.87414 -27.42019,-4.01595 -36.6024,-2.29263 -3.51315,0.65935 -6.61422,0.97214 -6.89127,0.69509 -0.84744,-0.84744 1.96627,-13.49165 5.40967,-24.3099 3.65431,-11.48089 7.7243,-20.91895 13.38921,-31.04876 l 3.8208,-6.83223 4.23733,4.81386 c 5.76746,6.55218 17.59797,15.14951 26.23695,19.06661 42.06998,19.07544 84.92957,-6.34588 88.68389,-52.60111 1.06861,-13.16569 -2.04556,-29.28575 -8.62744,-44.658783 -0.89077,-2.080547 3.79622,-2.840035 23.64895,-3.832119 10.92602,-0.545996 35.71321,0.990438 37.0173,2.294517 0.19925,0.199254 -0.62733,2.302063 -1.83684,4.672908 -6.53383,12.807357 -9.33361,35.914697 -6.1712,50.932707 0.93732,4.4513 3.69105,12.12307 6.11938,17.04838 18.90034,38.33483 68.3682,43.6014 102.86106,10.95104 l 9.12992,-8.64224 7.03971,14.33143 c 3.87184,7.88228 8.26081,18.08635 9.75326,22.6757 2.81166,8.64587 6.42062,24.55336 5.72769,25.2463 -0.21748,0.21747 -3.26981,-0.14373 -6.78296,-0.80268 -3.53825,-0.66367 -11.68246,-0.97011 -18.25767,-0.68701 -20.54728,0.88471 -36.87282,7.99677 -49.84936,21.71634 -15.29016,16.16569 -20.11483,37.43111 -13.37426,58.94892 6.75908,21.57685 26.08875,40.69604 49.02684,48.49294 l 5.25229,1.7853 -5.95173,6.96416 c -11.58134,13.55141 -29.08298,27.26644 -45.83595,35.91901 -5.36375,2.77027 -10.03933,5.03686 -10.39019,5.03686 -0.35085,0 -0.64131,-2.30658 -0.64548,-5.12574 -0.0111,-7.52097 -3.85846,-22.30761 -8.09734,-31.12062 -14.12921,-29.37583 -42.50389,-45.06145 -70.88619,-39.18613 -17.55036,3.63305 -36.04835,18.72635 -44.83745,36.58482 -5.03416,10.22885 -8.88195,24.58539 -8.89342,33.18238 -0.004,3.11591 -0.37176,5.66417 -0.81689,5.66283 -0.44513,-0.001 -4.94742,-2.32363 -10.0051,-5.16063 z m 89.9752,-114.2144 c 10.5756,-3.23184 20.22463,-11.94638 25.32788,-22.87495 2.45918,-5.26633 2.86128,-7.55989 2.87085,-16.37554 0.01,-9.29009 -0.3101,-10.92956 -3.41437,-17.48221 -6.02352,-12.71483 -16.46365,-20.83524 -30.28247,-23.55393 -9.09286,-1.78891 -17.09296,-0.59284 -26.06845,3.89741 -8.74538,4.37514 -15.32159,11.0599 -19.36446,19.6841 -2.5373,5.41253 -2.87086,7.44054 -2.87086,17.45463 0,10.34294 0.27565,11.89288 3.16239,17.78165 9.32459,19.0216 29.98507,27.7807 50.63949,21.46884 z"
     id="path4736"
     inkscape:connector-curvature="0"
     transform="matrix(2,0,0,2,-512,0)" />
</svg>
